<?xml version="1.0" encoding="UTF-8"?>
<svg width="128" height="128" viewBox="0 0 128 128" fill="none" xmlns="http://www.w3.org/2000/svg">
  <rect width="128" height="128" rx="16" fill="#3498DB"/>
  <path d="M32 32H96V96H32V32Z" stroke="white" stroke-width="6" stroke-dasharray="12 6"/>
  <path d="M40 40L88 40" stroke="white" stroke-width="4" stroke-linecap="round"/>
  <path d="M40 48L88 48" stroke="white" stroke-width="4" stroke-linecap="round"/>
  <path d="M40 56L88 56" stroke="white" stroke-width="4" stroke-linecap="round"/>
  <path d="M40 64L88 64" stroke="white" stroke-width="4" stroke-linecap="round"/>
  <path d="M40 72L88 72" stroke="white" stroke-width="4" stroke-linecap="round"/>
  <path d="M40 80L88 80" stroke="white" stroke-width="4" stroke-linecap="round"/>
  <path d="M40 88L88 88" stroke="white" stroke-width="4" stroke-linecap="round"/>
  <circle cx="96" cy="96" r="6" fill="white"/>
  <circle cx="32" cy="96" r="6" fill="white"/>
  <circle cx="96" cy="32" r="6" fill="white"/>
  <circle cx="32" cy="32" r="6" fill="white"/>
  <path d="M104 64L112 56L104 48" stroke="white" stroke-width="4" stroke-linecap="round" stroke-linejoin="round"/>
  <path d="M24 64L16 56L24 48" stroke="white" stroke-width="4" stroke-linecap="round" stroke-linejoin="round"/>
  <path d="M64 104L56 112L48 104" stroke="white" stroke-width="4" stroke-linecap="round" stroke-linejoin="round"/>
  <path d="M64 24L56 16L48 24" stroke="white" stroke-width="4" stroke-linecap="round" stroke-linejoin="round"/>
</svg>
